<?xml version="1.0" encoding="utf-8"?>
<!-- Generator: Adobe Illustrator 23.0.5, SVG Export Plug-In . SVG Version: 6.00 Build 0)  -->
<svg version="1.1" id="Layer_1" xmlns="http://www.w3.org/2000/svg" xmlns:xlink="http://www.w3.org/1999/xlink" x="0px" y="0px"
	 viewBox="0 0 975.64 345.25" enable-background="new 0 0 975.64 345.25" xml:space="preserve">
<g>
	<path d="M487.82,293.25l47.6,44.64c0,0,1.08,3.56-6.84,7.36c0,0-29.04-24.28-36.84-34.24c0,0,1.32-5.76,3.48-5.76l-0.71-0.72
		l-0.97,0.12l-10.32-9.12C483.22,295.53,485.94,296.61,487.82,293.25z"/>
	<path d="M485.38,288.45c0,0-19.68-13.08-36.12-20.88c-16.44-7.8-32.04-10.38-38.28-10.38c-6.24,0-12,3.33-9,7.88
		c3,4.54,10.56,5.63,15.12,6.1c4.56,0.48,19.69,2.52,26.17,5.4c6.48,2.88,29.03,14.28,33.23,15.84S487.66,293.73,485.38,288.45z"/>
	<circle fill="#FFFFFF" cx="408.73" cy="262.42" r="2.64"/>
	<circle fill="#FFFFFF" cx="479.3" cy="288.49" r="1.63"/>
	<circle fill="#FFFFFF" cx="530.92" cy="337.34" r="0.73"/>
	<path fill="#FFFFFF" d="M497.71,305.52c0,0-3.81,3.45-3.09,4.65c0,0,16.56,18.24,33.48,32.28c0,0,3.6-0.12,6-3.96l-2.76,1.32
		c0,0-4.68-3.6-4.92-4.8c-0.24-1.2-3.6-3.96-4.2-4.08c-0.6-0.12-5.88-6.45-7.32-7.66s-8.16-5.06-7.8-6.62
		c0.36-1.56-5.52-5.28-6.24-5.88c-0.72-0.6-2.88-2.88-3.24-3.12C497.26,307.41,497.47,306.6,497.71,305.52z"/>
</g>
<path d="M483.1,297.55l-43.01,40.34c0,0-1.08,3.56,6.84,7.36c0,0,29.04-24.28,36.84-34.24c0,0-1.32-5.76-3.48-5.76l0.71-0.72
	l0.97,0.12l4.71-4.16C486.68,300.49,484.98,300.91,483.1,297.55z"/>
<path d="M490.13,288.45c0,0,19.68-13.08,36.12-20.88c16.44-7.8,32.04-10.38,38.28-10.38s12,3.33,9,7.88
	c-3,4.54-10.56,5.63-15.12,6.1c-4.56,0.48-19.69,2.52-26.17,5.4c-6.48,2.88-29.03,14.28-33.23,15.84S487.85,293.73,490.13,288.45z"
	/>
<circle fill="#FFFFFF" cx="566.79" cy="262.42" r="2.64"/>
<circle fill="#FFFFFF" cx="496.21" cy="288.49" r="1.63"/>
<circle fill="#FFFFFF" cx="444.59" cy="337.34" r="0.73"/>
<path fill="#FFFFFF" d="M477.8,305.52c0,0,3.81,3.45,3.09,4.65c0,0-16.56,18.24-33.48,32.28c0,0-3.6-0.12-6-3.96l2.76,1.32
	c0,0,4.68-3.6,4.92-4.8c0.24-1.2,3.6-3.96,4.2-4.08s5.88-6.45,7.32-7.66s8.16-5.06,7.8-6.62c-0.36-1.56,5.52-5.28,6.24-5.88
	c0.72-0.6,2.88-2.88,3.24-3.12C478.25,307.41,478.04,306.6,477.8,305.52z"/>
<g>
	<path d="M965.93,55.11h-55.35c2.79-12.72,14.12-22.23,27.67-22.23C951.81,32.88,963.14,42.39,965.93,55.11z"/>
	<path d="M971.6,63.2v3.01h-66.56v-3.19c0.91-1.14,1.89-2.24,2.92-3.28c0.7-0.72,1.43-1.41,2.18-2.07c0.22-0.19,0.44-0.39,0.67-0.58
		h54.88c0.23,0.2,0.46,0.39,0.68,0.59c0.8,0.7,1.57,1.43,2.31,2.2C969.71,60.93,970.69,62.04,971.6,63.2z"/>
	<rect x="901" y="69.93" width="74.64" height="7.32"/>
	<path d="M966.02,279.56c-2.79,12.72-14.12,22.23-27.68,22.23c-13.55,0-24.88-9.51-27.67-22.23H966.02z"/>
	<polygon points="975.64,257.42 975.64,264.74 901,264.74 901,257.42 907.96,257.42 907.96,257.49 908.09,257.42 	"/>
	<path d="M905.04,81.17v172.34h66.56V81.17H905.04z M968.68,250.59h-60.72V84.08h60.72V250.59z"/>
	<path d="M971.6,268.46v3.13c-0.92,1.15-1.89,2.25-2.92,3.29c-0.7,0.73-1.45,1.43-2.22,2.11c-0.22,0.2-0.45,0.4-0.69,0.59h-54.86
		c-0.23-0.19-0.46-0.38-0.68-0.58c-0.79-0.7-1.55-1.42-2.27-2.16c-1.03-1.05-2-2.15-2.92-3.3v-3.08H971.6z"/>
</g>
<path d="M64.93,55.11H9.58c2.79-12.72,14.12-22.23,27.67-22.23C50.81,32.88,62.14,42.39,64.93,55.11z"/>
<path d="M70.6,63.2v3.01H4.04v-3.19c0.91-1.14,1.89-2.24,2.92-3.28c0.7-0.72,1.43-1.41,2.18-2.07c0.22-0.19,0.44-0.39,0.67-0.58
	h54.88c0.23,0.2,0.46,0.39,0.68,0.59c0.8,0.7,1.57,1.43,2.31,2.2C68.71,60.93,69.69,62.04,70.6,63.2z"/>
<rect y="69.93" width="74.64" height="7.32"/>
<path d="M65.02,279.56c-2.79,12.72-14.12,22.23-27.68,22.23c-13.55,0-24.88-9.51-27.67-22.23H65.02z"/>
<polygon points="74.64,257.42 74.64,264.74 0,264.74 0,257.42 6.96,257.42 6.96,257.49 7.09,257.42 "/>
<path d="M4.04,81.17v172.34H70.6V81.17H4.04z M67.68,250.59H6.96V84.08h60.72V250.59z"/>
<g>
	<polygon fill="#FFFFFF" points="968.68,179.23 968.68,192.51 947.05,203.47 907.96,223.29 907.96,210.01 	"/>
	<path fill="#FFFFFF" d="M968.68,213.43v13.28l-38.85,19.69l-8.22,4.16l-0.01,0.01c-0.01,0.01-0.01,0.01-0.02,0.02h-13.62v-6.38
		l59.45-30.14L968.68,213.43z"/>
	<polygon fill="#FFFFFF" points="968.68,84.08 968.68,89.91 908.81,120.25 907.96,120.69 907.96,107.41 944.56,88.86 953.98,84.08 	
		"/>
	<polygon fill="#FFFFFF" points="968.68,145.03 968.68,158.31 907.96,189.09 907.96,175.81 	"/>
	<polygon fill="#FFFFFF" points="968.68,110.83 968.68,124.11 907.96,154.89 907.96,141.61 928.81,131.04 	"/>
	<polygon fill="#FFFFFF" points="67.68,84.08 67.68,89.91 7.81,120.25 6.96,120.69 6.96,107.41 43.56,88.86 52.98,84.08 	"/>
	<polygon fill="#FFFFFF" points="67.68,110.83 67.68,124.11 6.96,154.89 6.96,141.61 27.81,131.04 	"/>
	<polygon fill="#FFFFFF" points="67.68,145.03 67.68,158.31 6.96,189.09 6.96,175.81 	"/>
	<polygon fill="#FFFFFF" points="67.68,179.23 67.68,192.51 46.05,203.47 6.96,223.29 6.96,210.01 	"/>
	<path fill="#FFFFFF" d="M67.68,213.43v13.28L28.83,246.4l-8.22,4.16l-0.01,0.01c-0.01,0.01-0.01,0.01-0.02,0.02H6.96v-6.38
		l59.45-30.14L67.68,213.43z"/>
</g>
<path d="M70.6,268.46v3.13c-0.92,1.15-1.89,2.25-2.92,3.29c-0.7,0.73-1.45,1.43-2.22,2.11c-0.22,0.2-0.45,0.4-0.69,0.59H9.91
	c-0.23-0.19-0.46-0.38-0.68-0.58c-0.79-0.7-1.55-1.42-2.27-2.16c-1.03-1.05-2-2.15-2.92-3.3v-3.08H70.6z"/>
<g>
	<g>
		<path d="M450.99,76.95h-12.48v-63.9h12.48V76.95z"/>
		<path d="M459.12,13.05h12.04v15.73L459.12,40.3V13.05z"/>
		<path d="M520.38,13.05h15.86v63.9h-10.94V27.33l0.44,2.81l-12.22,39.68h-10.63l-12.22-38.8l0.44-3.69v49.61h-10.94v-63.9h15.86
			l12.17,43.07L520.38,13.05z"/>
	</g>
</g>
<g>
	<g>
		<path d="M218.74,279.33h-4.3v-22.01h4.3V279.33z"/>
		<path d="M223.28,257.32h5.07l8.19,16.86l-0.36,0.39v-17.26h3.97v21.99h-5.1l-8.16-16.6l0.36-0.39v17h-3.97V257.32z"/>
		<path d="M244.99,257.32h4.15v22.01h-4.15V257.32z M247.08,275.33h5.28c1.36,0,2.42-0.33,3.16-0.98c0.75-0.66,1.12-1.58,1.12-2.79
			v-6.48c0-1.2-0.37-2.13-1.12-2.79c-0.75-0.66-1.8-0.98-3.16-0.98h-5.28v-4h5.19c1.84,0,3.4,0.31,4.7,0.92
			c1.3,0.62,2.28,1.51,2.96,2.69c0.68,1.18,1.01,2.6,1.01,4.27v6.24c0,1.58-0.33,2.97-0.98,4.15c-0.65,1.18-1.63,2.1-2.93,2.75
			c-1.3,0.66-2.9,0.98-4.78,0.98h-5.18V275.33z"/>
		<path d="M268.7,278.55c-1.22-0.67-2.16-1.62-2.82-2.85c-0.67-1.23-1-2.65-1-4.26v-6.24c0-1.61,0.33-3.03,1-4.26
			c0.67-1.23,1.61-2.17,2.82-2.85c1.22-0.67,2.62-1.01,4.22-1.01c1.59,0,3,0.34,4.22,1.01c1.22,0.67,2.16,1.62,2.82,2.85
			c0.67,1.23,1,2.65,1,4.26v6.24c0,1.62-0.33,3.04-1,4.26c-0.67,1.23-1.61,2.17-2.82,2.85c-1.22,0.67-2.62,1.01-4.22,1.01
			C271.32,279.56,269.92,279.22,268.7,278.55z M274.88,274.93c0.56-0.32,1-0.77,1.31-1.35c0.31-0.58,0.46-1.26,0.46-2.03v-6.45
			c0-0.77-0.15-1.44-0.46-2.03c-0.31-0.58-0.74-1.04-1.31-1.35c-0.57-0.32-1.22-0.48-1.97-0.48c-0.75,0-1.4,0.16-1.97,0.48
			c-0.57,0.32-1,0.77-1.31,1.35c-0.31,0.58-0.46,1.26-0.46,2.03v6.45c0,0.77,0.15,1.44,0.46,2.03c0.31,0.58,0.74,1.04,1.31,1.35
			c0.56,0.32,1.22,0.48,1.97,0.48C273.66,275.41,274.32,275.25,274.88,274.93z"/>
		<path d="M285.34,257.32h5.07l8.19,16.86l-0.36,0.39v-17.26h3.97v21.99h-5.1l-8.16-16.6l0.36-0.39v17h-3.97V257.32z"/>
		<path d="M307.05,257.32h4.15v22.01h-4.15V257.32z M308.55,257.32h13.24v4h-13.24V257.32z M308.55,266.4h11.58v4h-11.58V266.4z
			 M308.55,275.33h13.24v4h-13.24V275.33z"/>
		<path d="M330.92,279.56c0,0-0.5-0.11-1.51-0.32c-1-0.21-1.95-0.52-2.83-0.93c-0.88-0.41-1.67-0.9-2.37-1.48l1.92-3.42
			c0.85,0.7,1.83,1.23,2.94,1.61c1.11,0.38,2.25,0.57,3.42,0.57c1.35,0,2.4-0.23,3.15-0.69c0.75-0.46,1.12-1.11,1.12-1.95v-0.01
			c0-0.58-0.17-1.05-0.5-1.39s-0.77-0.6-1.3-0.76c-0.54-0.16-1.22-0.31-2.06-0.44c-0.03-0.01-0.06-0.01-0.08-0.01
			c-0.03,0-0.05,0-0.08-0.02l-0.33-0.04c-1.47-0.23-2.69-0.52-3.66-0.87c-0.97-0.35-1.79-0.96-2.47-1.83
			c-0.68-0.87-1.01-2.11-1.01-3.72v-0.02c0-1.42,0.32-2.64,0.95-3.65s1.56-1.78,2.77-2.31c1.21-0.53,2.67-0.79,4.39-0.79
			c0.79,0,1.59,0.09,2.41,0.27c0.82,0.18,1.63,0.44,2.41,0.79c0.79,0.34,1.53,0.76,2.24,1.24l-1.76,3.51
			c-0.85-0.58-1.73-1.04-2.66-1.36c-0.92-0.32-1.81-0.48-2.66-0.48c-1.27,0-2.26,0.21-2.95,0.63c-0.7,0.42-1.04,1.01-1.04,1.76v0.02
			c0,0.64,0.18,1.14,0.54,1.51s0.81,0.64,1.35,0.81c0.53,0.17,1.29,0.35,2.26,0.54c0.04,0.01,0.08,0.02,0.12,0.02
			c0.04,0,0.08,0.01,0.12,0.02c0.06,0.01,0.12,0.02,0.17,0.04c0.06,0.01,0.11,0.03,0.17,0.04c1.39,0.27,2.56,0.6,3.49,0.99
			c0.93,0.39,1.71,1.01,2.34,1.88c0.63,0.86,0.94,2.04,0.94,3.53v0.03c0,1.4-0.33,2.6-0.98,3.6c-0.66,1-1.61,1.76-2.87,2.29
			c-1.26,0.53-2.77,0.79-4.53,0.79C331.44,279.56,330.92,279.56,330.92,279.56z"/>
		<path d="M348.66,279.33h-4.3v-22.01h4.3V279.33z"/>
		<path d="M359.5,257.32h2.63l8.42,22.01h-4.47l-5.27-15.03l-5.27,15.03h-4.47L359.5,257.32z M355.12,271.81h11.58v4h-11.58V271.81z
			"/>
	</g>
</g>
<g>
	<g>
		<path d="M623.76,257.32h5.46v22.01h-3.77v-17.09l0.15,0.97l-4.21,13.67h-3.66l-4.21-13.37l0.15-1.27v17.09h-3.77v-22.01h5.46
			l4.19,14.83L623.76,257.32z"/>
		<path d="M640.36,257.32H643l8.42,22.01h-4.47l-5.27-15.03l-5.27,15.03h-4.46L640.36,257.32z M635.99,271.81h11.58v4h-11.58V271.81
			z"/>
		<path d="M654.14,257.32h5.07l8.19,16.86l-0.36,0.39v-17.26H671v21.99h-5.1l-8.16-16.61l0.36-0.39v17h-3.97V257.32z"/>
		<path d="M682.14,257.32h2.63l8.42,22.01h-4.47l-5.27-15.03l-5.27,15.03h-4.46L682.14,257.32z M677.77,271.81h11.58v4h-11.58
			V271.81z"/>
		<path d="M695.91,257.32h4.15v22.01h-4.15V257.32z M698,275.33h5.28c1.36,0,2.42-0.33,3.16-0.98c0.75-0.66,1.12-1.58,1.12-2.79
			v-6.48c0-1.2-0.37-2.13-1.12-2.79c-0.75-0.66-1.8-0.98-3.16-0.98H698v-4h5.19c1.84,0,3.4,0.31,4.7,0.92s2.28,1.51,2.96,2.69
			s1.01,2.6,1.01,4.27v6.24c0,1.58-0.33,2.97-0.98,4.15c-0.65,1.18-1.63,2.1-2.93,2.75s-2.9,0.98-4.78,0.98H698V275.33z"/>
		<path d="M719.63,278.55c-1.22-0.67-2.16-1.62-2.82-2.85c-0.67-1.23-1-2.65-1-4.26v-6.24c0-1.61,0.33-3.04,1-4.26
			c0.67-1.22,1.61-2.17,2.82-2.85c1.22-0.67,2.62-1.01,4.21-1.01s3,0.34,4.22,1.01c1.22,0.67,2.16,1.62,2.82,2.85
			c0.67,1.23,1,2.65,1,4.26v6.24c0,1.62-0.33,3.04-1,4.26c-0.67,1.22-1.61,2.17-2.82,2.85c-1.22,0.67-2.62,1.01-4.22,1.01
			S720.84,279.22,719.63,278.55z M725.81,274.93c0.57-0.32,1-0.77,1.31-1.35c0.31-0.59,0.46-1.26,0.46-2.03v-6.45
			c0-0.77-0.15-1.44-0.46-2.03c-0.31-0.58-0.74-1.04-1.31-1.35c-0.57-0.32-1.22-0.48-1.97-0.48s-1.4,0.16-1.97,0.48
			c-0.57,0.32-1,0.77-1.31,1.35c-0.31,0.59-0.46,1.26-0.46,2.03v6.45c0,0.77,0.15,1.44,0.46,2.03c0.31,0.58,0.74,1.04,1.31,1.35
			c0.57,0.32,1.22,0.48,1.97,0.48S725.24,275.25,725.81,274.93z"/>
	</g>
</g>
<g>
	<g>
		<path d="M360.45,301.26h4.15v22.01h-4.15V301.26z M361.95,301.26h13.24v4h-13.24V301.26z M361.95,310.34h11.58v4h-11.58V310.34z
			 M361.95,319.27h13.24v4h-13.24V319.27z"/>
		<path d="M386.64,323.49c0,0-0.5-0.11-1.51-0.32c-1-0.21-1.95-0.52-2.83-0.93c-0.88-0.41-1.67-0.9-2.37-1.48l1.92-3.42
			c0.85,0.7,1.83,1.23,2.94,1.61c1.11,0.38,2.25,0.57,3.42,0.57c1.35,0,2.4-0.23,3.15-0.69c0.75-0.46,1.12-1.11,1.12-1.95v-0.01
			c0-0.58-0.17-1.05-0.5-1.39s-0.77-0.6-1.3-0.76c-0.54-0.16-1.22-0.31-2.06-0.44c-0.03-0.01-0.06-0.01-0.08-0.01
			c-0.03,0-0.05,0-0.08-0.02l-0.33-0.04c-1.47-0.23-2.69-0.52-3.66-0.87c-0.97-0.35-1.79-0.96-2.47-1.83
			c-0.68-0.87-1.01-2.11-1.01-3.72v-0.02c0-1.42,0.32-2.64,0.95-3.65s1.56-1.78,2.77-2.31c1.21-0.53,2.67-0.79,4.39-0.79
			c0.79,0,1.59,0.09,2.41,0.27c0.82,0.18,1.63,0.44,2.41,0.79c0.79,0.34,1.53,0.76,2.24,1.24l-1.76,3.51
			c-0.85-0.58-1.73-1.04-2.66-1.36c-0.92-0.32-1.81-0.48-2.66-0.48c-1.27,0-2.26,0.21-2.95,0.63c-0.7,0.42-1.04,1.01-1.04,1.76v0.02
			c0,0.64,0.18,1.14,0.54,1.51s0.81,0.64,1.35,0.81c0.53,0.17,1.29,0.35,2.26,0.54c0.04,0.01,0.08,0.02,0.12,0.02
			c0.04,0,0.08,0.01,0.12,0.02c0.06,0.01,0.12,0.02,0.17,0.04c0.06,0.01,0.11,0.03,0.17,0.04c1.39,0.27,2.56,0.6,3.49,0.99
			c0.93,0.39,1.71,1.01,2.34,1.88c0.63,0.86,0.94,2.04,0.94,3.53v0.03c0,1.4-0.33,2.6-0.98,3.6c-0.66,1-1.61,1.76-2.87,2.29
			c-1.26,0.53-2.77,0.79-4.53,0.79C387.17,323.49,386.64,323.49,386.64,323.49z"/>
		<path d="M399.68,301.26h16.14v4h-16.14V301.26z M405.68,303.06h4.15v20.21h-4.15V303.06z"/>
	</g>
</g>
<g>
	<g>
		<path d="M560.95,319.53l7.55-9.93c0.34-0.44,0.61-0.9,0.79-1.37c0.19-0.47,0.28-0.91,0.28-1.31v-0.03c0-0.59-0.19-1.05-0.58-1.38
			c-0.38-0.32-0.93-0.48-1.63-0.48c-0.69,0-1.24,0.22-1.67,0.67c-0.42,0.45-0.68,1.09-0.77,1.92v0.02h-4.25v-0.02
			c0.09-1.37,0.42-2.55,0.99-3.54c0.57-0.99,1.34-1.74,2.31-2.26s2.09-0.78,3.36-0.78c1.37,0,2.54,0.22,3.52,0.67
			c0.97,0.45,1.71,1.1,2.22,1.96s0.76,1.89,0.76,3.1v0.02c0,1-0.17,1.99-0.52,2.97c-0.35,0.98-0.83,1.88-1.46,2.67l-5.42,6.84h7.52
			v4h-13.02V319.53z"/>
		<path d="M578.26,321.83c-1.12-1.1-1.68-2.64-1.68-4.59v-10c0-1.98,0.56-3.51,1.69-4.61s2.76-1.64,4.9-1.64
			c2.15,0,3.78,0.54,4.9,1.63s1.68,2.63,1.68,4.62v10c0,1.98-0.56,3.51-1.69,4.61c-1.13,1.09-2.76,1.64-4.9,1.64
			C581.01,323.49,579.38,322.94,578.26,321.83z M585.01,318.64c0.39-0.57,0.59-1.39,0.59-2.46v-7.89c0-1.07-0.2-1.89-0.59-2.46
			s-1.01-0.86-1.85-0.86s-1.45,0.29-1.85,0.86s-0.59,1.39-0.59,2.46v7.89c0,1.07,0.2,1.89,0.59,2.46s1.01,0.86,1.85,0.86
			S584.62,319.21,585.01,318.64z"/>
		<path d="M592.64,319.53l7.55-9.93c0.34-0.44,0.61-0.9,0.79-1.37c0.19-0.47,0.28-0.91,0.28-1.31v-0.03c0-0.59-0.19-1.05-0.58-1.38
			c-0.38-0.32-0.93-0.48-1.63-0.48c-0.69,0-1.24,0.22-1.67,0.67c-0.42,0.45-0.68,1.09-0.77,1.92v0.02h-4.25v-0.02
			c0.09-1.37,0.42-2.55,0.99-3.54c0.57-0.99,1.34-1.74,2.31-2.26s2.09-0.78,3.36-0.78c1.37,0,2.54,0.22,3.52,0.67
			c0.97,0.45,1.71,1.1,2.22,1.96s0.76,1.89,0.76,3.1v0.02c0,1-0.17,1.99-0.52,2.97c-0.35,0.98-0.83,1.88-1.46,2.67l-5.42,6.84h7.52
			v4h-13.02V319.53z"/>
		<path d="M609.95,321.83c-1.12-1.1-1.68-2.64-1.68-4.59v-10c0-1.98,0.56-3.51,1.69-4.61c1.13-1.09,2.76-1.64,4.9-1.64
			c2.15,0,3.78,0.54,4.9,1.63s1.68,2.63,1.68,4.62v10c0,1.98-0.56,3.51-1.69,4.61s-2.76,1.64-4.9,1.64
			C612.71,323.49,611.07,322.94,609.95,321.83z M616.7,318.64c0.39-0.57,0.59-1.39,0.59-2.46v-7.89c0-1.07-0.2-1.89-0.59-2.46
			s-1.01-0.86-1.85-0.86c-0.84,0-1.45,0.29-1.85,0.86s-0.59,1.39-0.59,2.46v7.89c0,1.07,0.2,1.89,0.59,2.46s1.01,0.86,1.85,0.86
			C615.69,319.5,616.31,319.21,616.7,318.64z"/>
	</g>
</g>
<g>
	<g>
		<path d="M151.02,182.06c10.93,0.47,16.4,4.35,16.4,11.47c0,10.68,0,21.35,0,32.03c-0.08,13.49-10.2,20.93-22.63,23.39
			c-13.35,2.66-26.67,5.47-39.95,8.44c0-42.59,0-85.18,0-127.76c11.3-2.49,22.61-4.9,33.94-7.23c12.82-2.76,28.33,1.79,26.56,17.96
			c0,9.82,0,14.73,0,24.56c0,7.36-4.78,12.74-14.33,16.26C151.02,181.52,151.02,181.7,151.02,182.06z M124.7,179.23
			c3.73-0.79,5.59-1.18,9.32-1.94c7.6-1.56,11.4-5.39,11.4-11.56c0-7.97,0-11.96,0-19.93c0-6.17-2.98-8.67-8.91-7.46
			c-4.72,0.96-7.09,1.46-11.81,2.45C124.7,153.6,124.7,166.42,124.7,179.23z M124.7,237.59c5.96-1.26,8.94-1.88,14.91-3.09
			c5.25-1.06,7.88-3.41,7.88-7.09c0-9.43,0-18.86,0-28.29c0-6.05-3.94-8.31-11.82-6.7c-4.39,0.9-6.59,1.36-10.98,2.28
			C124.7,209,124.7,223.3,124.7,237.59z"/>
		<path d="M203,238.37c-8,1.32-12,2-19.99,3.4c0-35.29,0-70.58,0-105.88c0.11-13.93,9.88-24.64,23.94-25.94
			c6-0.97,9-1.45,15.01-2.37c13.39-2.18,24.35,3.84,24.01,18.38c0,35.29,0,70.58,0,105.88c-8.02,1.12-12.03,1.7-20.04,2.91
			c0-15.6,0-31.2,0-46.8c-9.18,1.39-13.77,2.11-22.94,3.62C203,207.17,203,222.77,203,238.37z M225.94,172.47
			c0-14.18,0-28.35,0-42.53c0-4.98-2.92-7.04-8.76-6.13c-2.17,0.34-3.25,0.51-5.42,0.85c-5.84,0.93-8.75,3.91-8.75,8.89
			c0,14.18,0,28.35,0,42.53C212.17,174.58,216.75,173.86,225.94,172.47z"/>
		<path d="M263.75,101.71c13.1-1.69,26.22-3.22,39.36-4.61c13.48-1.52,23.36,5.55,23.06,19.6c0,10.5,0,21,0,31.5
			c0,11.15-3.99,18.57-11.95,22.32c4.69,17.29,9.37,34.58,14.05,51.87c-7.64,0.7-11.45,1.07-19.08,1.85
			c-4.4-16.73-8.8-33.47-13.2-50.2c-4.86,0.53-7.29,0.81-12.15,1.38c0,17.2,0,34.4,0,51.6c-8.04,0.94-12.06,1.43-20.09,2.47
			C263.75,186.88,263.75,144.29,263.75,101.71z M283.83,160.81c5.28-0.62,7.92-0.92,13.19-1.49c6-0.66,9.01-4.04,9.01-10.21
			c0-11.03,0-16.55,0-27.58c0-6.17-3.01-8.95-9.01-8.29c-5.28,0.58-7.92,0.88-13.19,1.49C283.83,130.08,283.83,145.44,283.83,160.81
			z"/>
		<path d="M389.79,152.19c11.07,1.99,16.61,6.62,16.61,13.74c0,10.68,0,21.35,0,32.03c0.06,13.43-10.58,19.58-22.91,20.25
			c-13.52,0.81-27.04,1.77-40.54,2.88c0-42.59,0-85.18,0-127.76c11.48-0.91,22.95-1.75,34.44-2.51
			c13.54-0.94,28.41,5.66,26.91,21.64c0,9.82,0,14.73,0,24.56c0,7.36-4.84,12.07-14.51,14.27
			C389.79,151.65,389.79,151.83,389.79,152.19z M363.11,145.7c3.78-0.27,5.67-0.4,9.45-0.65c7.7-0.51,11.56-3.81,11.56-9.97
			c0-7.97,0-11.96,0-19.93c0-6.17-3.01-9.08-9.04-8.69c-4.79,0.31-7.19,0.47-11.97,0.81C363.11,120.08,363.11,132.89,363.11,145.7z
			 M363.11,204.06c6.05-0.43,9.07-0.63,15.13-1.01c5.32-0.33,7.99-2.32,7.99-6c0-9.43,0-18.86,0-28.29c0-6.05-3.99-8.86-11.98-8.34
			c-4.45,0.29-6.68,0.44-11.13,0.76C363.11,175.48,363.11,189.77,363.11,204.06z"/>
		<path d="M423.23,216.3c0-42.59,0-85.18,0-127.76c16.68-0.6,33.38-1.01,50.08-1.13c0,6.19,0,9.29,0,15.48
			c-9.96,0.07-19.92,0.24-29.88,0.5c0,12.93,0,25.86,0,38.79c10.6-0.27,15.91-0.36,26.51-0.47c0,6.19,0,9.29,0,15.48
			c-10.61,0.11-15.91,0.2-26.51,0.47c0,14.18,0,28.35,0,42.53c9.96-0.26,19.92-0.43,29.88-0.5c0,6.19,0,9.29,0,15.48
			C456.6,215.29,439.91,215.7,423.23,216.3z"/>
		<path d="M487.82,87.35c13.19,0,26.38,0.15,39.56,0.45c12.9,0.27,24.32,8.46,23.14,22.56c0,10.5,0,21,0,31.5
			c0,11.15-4,18.06-11.99,20.79c4.7,17.89,9.4,35.78,14.09,53.67c-7.66-0.28-11.48-0.4-19.14-0.6c-4.42-17.3-8.83-34.6-13.26-51.9
			c-4.88-0.09-7.32-0.13-12.2-0.18c0,17.2,0,34.4,0,51.6c-8.08-0.09-12.12-0.12-20.2-0.12C487.82,172.52,487.82,129.94,487.82,87.35
			z M508.02,149.03c5.3,0.06,7.95,0.1,13.26,0.2c6.03,0.11,9.05-2.89,9.05-9.06c0-11.03,0-16.55,0-27.58c0-6.17-3.02-9.33-9.05-9.45
			c-5.3-0.1-7.95-0.14-13.26-0.2C508.02,118.31,508.02,133.67,508.02,149.03z"/>
		<path d="M606.02,125.67c0-4.48,0-6.73,0-11.21c0-5.1-2.94-7.86-8.82-8.22c-1.26-0.08-1.89-0.12-3.15-0.19
			c-5.75-0.35-8.62,2.05-8.62,7.15c0,8.47,0,12.71,0,21.18c0,2.37,0.56,4.01,1.68,4.9c1.12,0.89,2.94,2.07,5.47,3.52
			c7.65,3.94,11.47,5.94,19.12,9.97c4.2,2.32,7.18,4.11,8.93,5.37c1.75,1.26,3.12,2.73,4.09,4.41c0.98,1.68,1.47,4.77,1.47,9.28
			c0,10.89,0,16.34,0,27.23c0.25,14.58-10.91,20.77-24.36,19.78c-4.96-0.32-7.44-0.48-12.4-0.76
			c-14.69,0.32-24.17-10.64-24.18-24.72c0-2.56,0-3.84,0-6.41c8.07,0.36,12.11,0.56,20.18,1.01c0,2.78,0,4.16,0,6.94
			c0,4.98,3.01,7.63,9.04,8c1.43,0.09,2.14,0.13,3.57,0.22c5.32,0.33,7.98-1.97,7.98-6.95c0-8.68,0-13.03,0-21.71
			c0-2.37-0.56-4.01-1.68-4.92c-1.12-0.9-2.94-2.09-5.46-3.56c-7.65-4.11-11.47-6.15-19.13-10.18c-4.2-2.12-7.25-3.87-9.14-5.26
			c-1.89-1.39-3.26-3.15-4.1-5.26c-0.84-2.11-1.26-4.83-1.26-8.15c0-10.46,0-15.69,0-26.16c-0.03-13.72,10.41-22.64,24.18-20.65
			c5.04,0.29,7.57,0.45,12.61,0.78c13.06,0.84,25.32,9.09,24.15,23.63c0,4.98,0,7.47,0,12.46
			C618.12,126.51,614.08,126.22,606.02,125.67z"/>
		<path d="M687.83,226.54c0-19.34,0-38.67,0-58.01c-9.88-1.13-14.83-1.67-24.72-2.66c0,19.34,0,38.67,0,58.01
			c-8.05-0.81-12.08-1.19-20.14-1.9c0-42.59,0-85.18,0-127.76c8.06,0.71,12.08,1.1,20.14,1.9c0,18.09,0,36.18,0,54.27
			c9.9,0.99,14.84,1.52,24.72,2.66c0-18.09,0-36.18,0-54.27c8.04,0.92,12.06,1.41,20.09,2.42c0,42.59,0,85.18,0,127.76
			C699.88,227.95,695.87,227.46,687.83,226.54z"/>
		<path d="M749.91,234.79c-13.95-1.11-24.12-11.19-24.22-25.19c0-28.06,0-56.11,0-84.17c-0.1-13.68,10.59-21.75,24.01-18.43
			c7.68,1.16,11.52,1.76,19.19,3c13.12,2.16,24.99,11.38,23.94,25.94c0,28.06,0,56.11,0,84.17c0.39,14.64-11,19.92-24.15,17.62
			C761.18,236.51,757.42,235.92,749.91,234.79z M754.71,220.03c4.09,0.63,6.13,0.95,10.22,1.6c5.28,0.84,7.92-1.21,7.92-6.19
			c0-27.28,0-54.57,0-81.85c0-4.98-2.99-7.97-8.96-8.92c-3.75-0.6-5.63-0.89-9.38-1.47c-5.84-0.9-8.76,1.17-8.76,6.15
			c0,27.28,0,54.57,0,81.85C745.74,216.19,748.73,219.12,754.71,220.03z"/>
		<path d="M810.5,117.26c12.12,2.27,24.22,4.66,36.3,7.18c13.13,2.79,24.99,12.42,23.99,27.07c0,12.63,0,25.27,0,37.9
			c0.46,14.58-10.88,19.46-23.79,16.56c-6.63-1.39-9.94-2.06-16.58-3.38c0,15.42,0,30.84,0,46.27c-7.96-1.58-11.95-2.35-19.93-3.85
			C810.5,202.43,810.5,159.84,810.5,117.26z M830.43,187.12c5.06,1.01,7.59,1.52,12.64,2.56c5.25,1.08,7.87-0.85,7.87-5.83
			c0-11.86,0-23.73,0-35.59c0-4.98-2.97-8.11-8.9-9.33c-4.64-0.96-6.96-1.43-11.61-2.35C830.43,153.43,830.43,170.27,830.43,187.12z
			"/>
	</g>
</g>
<path fill="none" stroke="#000000" stroke-width="17" stroke-miterlimit="10" d="M561.18,48.72
	c98.72,3.89,201.72,17.29,307.36,43.65"/>
<path fill="none" stroke="#000000" stroke-width="17" stroke-miterlimit="10" d="M106.39,92.64
	c94.57-21.55,198.8-37.86,310.07-43.39"/>
<g>
	<polygon fill="#8A171A" points="968.68,89.91 968.68,110.83 928.81,131.04 907.96,141.61 907.96,120.69 908.81,120.25 	"/>
	<polygon fill="#8A171A" points="968.68,158.31 968.68,179.23 907.96,210.01 907.96,189.09 	"/>
	<polygon fill="#1D3262" points="968.68,192.51 968.68,213.43 967.41,214.07 907.96,244.21 907.96,223.29 947.05,203.47 	"/>
	<polygon fill="#1D3262" points="968.68,124.11 968.68,145.03 907.96,175.81 907.96,154.89 	"/>
	<polygon fill="#1D3262" points="953.98,84.08 944.56,88.86 907.96,107.41 907.96,84.08 	"/>
	<g>
		<polygon fill="#8A171A" points="304.72,301.26 282.72,323.26 223.28,323.26 245.28,301.26 		"/>
		<path fill="#8A171A" d="M968.68,226.71v23.88h-47.1c0.01-0.01,0.01-0.01,0.02-0.02l0.01-0.01l8.22-4.16L968.68,226.71z"/>
		<polygon fill="#8A171A" points="67.68,89.91 67.68,110.83 27.81,131.04 6.96,141.61 6.96,120.69 7.81,120.25 		"/>
		<polygon fill="#8A171A" points="67.68,158.31 67.68,179.23 6.96,210.01 6.96,189.09 		"/>
		<path fill="#8A171A" d="M67.68,226.71v23.88h-47.1c0.01-0.01,0.01-0.01,0.02-0.02l0.01-0.01l8.22-4.16L67.68,226.71z"/>
		<polygon fill="#1D3262" points="67.68,192.51 67.68,213.43 66.41,214.07 6.96,244.21 6.96,223.29 46.05,203.47 		"/>
		<polygon fill="#1D3262" points="67.68,124.11 67.68,145.03 6.96,175.81 6.96,154.89 		"/>
		<polygon fill="#1D3262" points="52.98,84.08 43.56,88.86 6.96,107.41 6.96,84.08 		"/>
		<polygon fill="#8A171A" points="870.26,301.26 848.26,323.26 788.82,323.26 810.82,301.26 		"/>
		<polygon fill="#1D3262" points="752.11,301.26 730.11,323.26 670.67,323.26 692.67,301.26 		"/>
		<polygon fill="#1D3262" points="185.84,301.26 163.84,323.26 104.4,323.26 126.4,301.26 		"/>
	</g>
</g>
</svg>
